<svg width="182" height="182" viewBox="0 0 182 182" fill="none" xmlns="http://www.w3.org/2000/svg">
<path d="M181.998 95.2636C181.998 101.626 180.47 107.527 177.413 112.93C174.356 118.333 170.268 122.563 165.114 125.513C165.256 126.473 165.327 127.966 165.327 129.992C165.327 139.625 162.092 147.801 155.694 154.554C149.26 161.344 141.511 164.721 132.447 164.721C128.395 164.721 124.52 163.974 120.859 162.481C118.015 168.311 113.927 173.003 108.56 176.593C103.228 180.219 97.3628 181.996 91 181.996C84.4951 181.996 78.5944 180.254 73.3336 176.7C68.0372 173.181 63.985 168.453 61.1413 162.481C57.48 163.974 53.641 164.721 49.5532 164.721C40.489 164.721 32.7044 161.344 26.1994 154.554C19.6945 147.801 16.4598 139.59 16.4598 129.992C16.4598 128.926 16.602 127.433 16.8508 125.513C11.6966 122.527 7.60882 118.333 4.55186 112.93C1.53044 107.527 0.00195312 101.626 0.00195312 95.2636C0.00195312 88.5098 1.70817 82.2892 5.08505 76.673C8.46193 71.0567 13.0118 66.8978 18.6992 64.1963C17.2063 60.144 16.4598 56.0562 16.4598 52.004C16.4598 42.4065 19.6945 34.1954 26.1994 27.4416C32.7044 20.6878 40.489 17.2754 49.5532 17.2754C53.6055 17.2754 57.48 18.0219 61.1413 19.5148C63.985 13.6853 68.0728 8.99317 73.4402 5.40301C78.7721 1.81285 84.6372 0 91 0C97.3628 0 103.228 1.81285 108.56 5.36746C113.892 8.95762 118.015 13.6497 120.859 19.4793C124.52 17.9863 128.359 17.2399 132.447 17.2399C141.511 17.2399 149.26 20.6167 155.694 27.4061C162.128 34.1954 165.327 42.371 165.327 51.9684C165.327 56.4472 164.652 60.4995 163.301 64.1607C168.988 66.8622 173.538 71.0211 176.915 76.6374C180.292 82.2893 181.998 88.5098 181.998 95.2636ZM87.1255 122.67L124.698 66.4001C125.657 64.9072 125.942 63.2721 125.622 61.5303C125.266 59.7886 124.378 58.4023 122.885 57.4781C121.392 56.5183 119.757 56.1984 118.015 56.4472C116.238 56.7316 114.816 57.5847 113.75 59.0776L80.6561 108.842L65.4068 93.6285C64.056 92.2777 62.492 91.6379 60.7503 91.709C58.9729 91.7801 57.4445 92.4199 56.0937 93.6285C54.8852 94.837 54.2809 96.3655 54.2809 98.2139C54.2809 100.027 54.8852 101.555 56.0937 102.799L77.0304 123.736L78.0612 124.554C79.2698 125.371 80.5139 125.762 81.7225 125.762C84.104 125.727 85.9169 124.731 87.1255 122.67Z" fill="#31357C"/>
</svg>
