<svg width="18" height="18" viewBox="0 0 18 18" fill="none" xmlns="http://www.w3.org/2000/svg">
<path d="M11.258 2.4892C8.65258 2.4892 6.53298 4.6088 6.53298 7.2142C6.53298 7.5747 6.57364 7.93036 6.65414 8.27616L2.48696 12.4432C2.38826 12.5419 2.33298 12.6756 2.33298 12.8142V15.6142C2.33298 15.904 2.56818 16.1392 2.85798 16.1392H5.65798C5.94778 16.1392 6.18298 15.904 6.18298 15.6142V14.0392H7.75798C7.89728 14.0392 8.031 13.9839 8.129 13.8852L10.196 11.818C10.5411 11.8985 10.8968 11.9392 11.258 11.9392C13.8634 11.9392 15.983 9.8196 15.983 7.2142C15.983 4.6088 13.8634 2.4892 11.258 2.4892ZM11.258 10.8892C10.8933 10.8892 10.5348 10.836 10.1946 10.7303C10.0077 10.6722 9.80548 10.7226 9.66828 10.8612L7.54025 12.9892H5.65798C5.36818 12.9892 5.13298 13.2244 5.13298 13.5142V15.0892H3.38298V13.0319L7.611 8.80389C7.7482 8.66599 7.79931 8.46371 7.74191 8.27821C7.63691 7.93801 7.58298 7.57958 7.58298 7.21488C7.58298 5.18838 9.23148 3.53988 11.258 3.53988C13.2845 3.53988 14.933 5.18838 14.933 7.21488C14.933 9.24138 13.2845 10.8892 11.258 10.8892ZM12.847 6.5142C12.847 6.9972 12.455 7.3892 11.972 7.3892C11.4897 7.3892 11.0934 6.9972 11.0934 6.5142C11.0934 6.0312 11.482 5.6392 11.965 5.6392H11.972C12.455 5.6392 12.847 6.0312 12.847 6.5142Z" fill="#31357C"/>
</svg>
