<svg width="18" height="18" viewBox="0 0 18 18" fill="none" xmlns="http://www.w3.org/2000/svg">
<path d="M13.3578 3.13032H12.4828V2.60532C12.4828 2.31552 12.2476 2.08032 11.9578 2.08032C11.668 2.08032 11.4328 2.31552 11.4328 2.60532V3.13032H6.88282V2.60532C6.88282 2.31552 6.64762 2.08032 6.35782 2.08032C6.06802 2.08032 5.83282 2.31552 5.83282 2.60532V3.13032H4.95782C3.26522 3.13032 2.33282 4.06272 2.33282 5.75532V13.1053C2.33282 14.7979 3.26522 15.7303 4.95782 15.7303H13.3578C15.0504 15.7303 15.9828 14.7979 15.9828 13.1053V5.75532C15.9828 4.06272 15.0504 3.13032 13.3578 3.13032ZM4.95782 4.18032H5.83282V4.70532C5.83282 4.99512 6.06802 5.23032 6.35782 5.23032C6.64762 5.23032 6.88282 4.99512 6.88282 4.70532V4.18032H11.4328V4.70532C11.4328 4.99512 11.668 5.23032 11.9578 5.23032C12.2476 5.23032 12.4828 4.99512 12.4828 4.70532V4.18032H13.3578C14.4617 4.18032 14.9328 4.65142 14.9328 5.75532V6.28032H3.38282V5.75532C3.38282 4.65142 3.85392 4.18032 4.95782 4.18032ZM13.3578 14.6803H4.95782C3.85392 14.6803 3.38282 14.2092 3.38282 13.1053V7.33032H14.9328V13.1053C14.9328 14.2092 14.4617 14.6803 13.3578 14.6803ZM7.07184 9.60532C7.07184 9.99172 6.75894 10.3053 6.37184 10.3053C5.98544 10.3053 5.66825 9.99172 5.66825 9.60532C5.66825 9.21892 5.97843 8.90532 6.36483 8.90532H6.37184C6.75824 8.90532 7.07184 9.21892 7.07184 9.60532ZM9.87184 9.60532C9.87184 9.99172 9.55894 10.3053 9.17184 10.3053C8.78544 10.3053 8.46825 9.99172 8.46825 9.60532C8.46825 9.21892 8.77843 8.90532 9.16483 8.90532H9.17184C9.55824 8.90532 9.87184 9.21892 9.87184 9.60532ZM12.6718 9.60532C12.6718 9.99172 12.3589 10.3053 11.9718 10.3053C11.5854 10.3053 11.2682 9.99172 11.2682 9.60532C11.2682 9.21892 11.5784 8.90532 11.9648 8.90532H11.9718C12.3582 8.90532 12.6718 9.21892 12.6718 9.60532ZM7.07184 12.4053C7.07184 12.7917 6.75894 13.1053 6.37184 13.1053C5.98544 13.1053 5.66825 12.7917 5.66825 12.4053C5.66825 12.0189 5.97843 11.7053 6.36483 11.7053H6.37184C6.75824 11.7053 7.07184 12.0189 7.07184 12.4053ZM9.87184 12.4053C9.87184 12.7917 9.55894 13.1053 9.17184 13.1053C8.78544 13.1053 8.46825 12.7917 8.46825 12.4053C8.46825 12.0189 8.77843 11.7053 9.16483 11.7053H9.17184C9.55824 11.7053 9.87184 12.0189 9.87184 12.4053ZM12.6718 12.4053C12.6718 12.7917 12.3589 13.1053 11.9718 13.1053C11.5854 13.1053 11.2682 12.7917 11.2682 12.4053C11.2682 12.0189 11.5784 11.7053 11.9648 11.7053H11.9718C12.3582 11.7053 12.6718 12.0189 12.6718 12.4053Z" fill="#31357C"/>
</svg>
