<svg width="18" height="18" viewBox="0 0 18 18" fill="none" xmlns="http://www.w3.org/2000/svg">
<path d="M12.3444 15.6102C12.0231 15.6102 11.6998 15.5668 11.3806 15.4793C7.06506 14.2949 3.64835 10.8803 2.46325 6.56761C2.19375 5.58691 2.34141 4.5649 2.88041 3.6913C3.42151 2.8135 4.31126 2.194 5.32136 1.9924C5.99336 1.858 6.65765 2.15761 6.99855 2.73231L8.09264 4.5803C8.62394 5.4777 8.35995 6.6334 7.49125 7.2116L6.69965 7.73801C7.43955 9.25701 8.68405 10.5051 10.1967 11.2443L10.7303 10.4484C11.312 9.58109 12.4676 9.3214 13.3643 9.8555L15.2145 10.9587C15.7871 11.3003 16.0831 11.9688 15.9529 12.6212C15.7513 13.6313 15.1318 14.521 14.2547 15.0621C13.6653 15.4247 13.0094 15.6102 12.3444 15.6102ZM5.64264 3.0088C5.60834 3.0088 5.57336 3.01231 5.53976 3.01931C4.80196 3.16701 4.16287 3.6115 3.77507 4.2422C3.39077 4.8652 3.28505 5.5925 3.47685 6.289C4.56395 10.2461 7.69924 13.38 11.6584 14.4664C12.3556 14.6575 13.0808 14.5511 13.7031 14.1675C14.3331 13.779 14.7784 13.1392 14.9233 12.414C14.9667 12.1963 14.868 11.973 14.6762 11.8589L12.8267 10.7557C12.4102 10.5079 11.8726 10.629 11.6024 11.0315L10.8219 12.197C10.6819 12.4056 10.4118 12.4854 10.1836 12.3888C8.10949 11.5215 6.42178 9.8303 5.55378 7.7485C5.45718 7.5161 5.53828 7.2487 5.74758 7.1094L6.91037 6.33589C7.31357 6.06779 7.43603 5.5309 7.18893 5.1144L6.09484 3.26709C5.99894 3.10469 5.82534 3.0088 5.64264 3.0088Z" fill="#31357C"/>
</svg>
