<svg width="18" height="18" viewBox="0 0 18 18" fill="none" xmlns="http://www.w3.org/2000/svg">
<path d="M9.16432 7.90874C7.52352 7.90874 6.18932 6.57384 6.18932 4.93374C6.18932 3.29364 7.52352 1.95874 9.16432 1.95874C10.8051 1.95874 12.1393 3.29364 12.1393 4.93374C12.1393 6.57384 10.8051 7.90874 9.16432 7.90874ZM9.16432 3.00874C8.10243 3.00874 7.23932 3.87184 7.23932 4.93374C7.23932 5.99564 8.10243 6.85874 9.16432 6.85874C10.2262 6.85874 11.0893 5.99564 11.0893 4.93374C11.0893 3.87184 10.2255 3.00874 9.16432 3.00874ZM11.9559 15.6087H6.36014C4.66614 15.6087 3.733 14.6813 3.733 12.9971C3.733 11.1344 4.7872 8.95874 7.758 8.95874H10.558C13.5288 8.95874 14.583 11.1337 14.583 12.9971C14.583 14.6813 13.6499 15.6087 11.9559 15.6087ZM7.758 10.0087C4.9979 10.0087 4.783 12.2957 4.783 12.9971C4.783 14.0919 5.25484 14.5587 6.36014 14.5587H11.9559C13.0612 14.5587 13.533 14.0919 13.533 12.9971C13.533 12.2964 13.3181 10.0087 10.558 10.0087H7.758Z" fill="#31357C"/>
</svg>
