<svg width="18" height="17" viewBox="0 0 18 17" fill="none" xmlns="http://www.w3.org/2000/svg">
<path d="M9.15799 1.61084C5.78049 1.61084 3.03299 4.35834 3.03299 7.73584C3.03299 11.3184 6.32088 13.4898 8.49648 14.9269L8.86679 15.1727C8.95499 15.2315 9.05649 15.2608 9.15799 15.2608C9.25949 15.2608 9.36099 15.2315 9.44919 15.1727L9.81949 14.9269C11.9951 13.4898 15.283 11.3184 15.283 7.73584C15.283 4.35834 12.5355 1.61084 9.15799 1.61084ZM9.24129 14.0505L9.15799 14.1059L9.07469 14.0505C6.96769 12.6589 4.08299 10.7535 4.08299 7.73584C4.08299 4.93724 6.35939 2.66084 9.15799 2.66084C11.9566 2.66084 14.233 4.93724 14.233 7.73584C14.233 10.7535 11.3476 12.6596 9.24129 14.0505ZM9.15799 5.46084C7.90359 5.46084 6.88299 6.48144 6.88299 7.73584C6.88299 8.99024 7.90359 10.0108 9.15799 10.0108C10.4124 10.0108 11.433 8.99024 11.433 7.73584C11.433 6.48144 10.4124 5.46084 9.15799 5.46084ZM9.15799 8.96084C8.48249 8.96084 7.93299 8.41134 7.93299 7.73584C7.93299 7.06034 8.48249 6.51084 9.15799 6.51084C9.83349 6.51084 10.383 7.06034 10.383 7.73584C10.383 8.41134 9.83349 8.96084 9.15799 8.96084Z" fill="#31357C"/>
</svg>
